<?xml version="1.0" encoding="UTF-8"?>
<svg version="1.1" xmlns="http://www.w3.org/2000/svg" width="280" height="280">
<path d="M0 0 C92.4 0 184.8 0 280 0 C280 92.4 280 184.8 280 280 C187.6 280 95.2 280 0 280 C0 187.6 0 95.2 0 0 Z " fill="#101012" transform="translate(0,0)"/>
<path d="M0 0 C0.99064453 -0.01224609 1.98128906 -0.02449219 3.00195312 -0.03710938 C13.09371671 -0.05696202 21.8971612 1.90541481 31.3125 5.4375 C32.13548584 5.74324951 32.95847168 6.04899902 33.80639648 6.36401367 C40.68225421 8.9924786 47.53841579 11.91341579 52.8125 17.1875 C53.34872589 20.49422632 53.02655842 21.85817936 51.1875 24.6875 C49.06353633 26.92325123 46.85027237 28.82063665 44.4453125 30.7421875 C42.5660276 32.40566935 40.99779544 34.21112017 39.375 36.125 C37.09007845 38.77228796 34.79017191 41.3441103 32.25 43.75 C31.73308594 44.24628906 31.21617187 44.74257812 30.68359375 45.25390625 C27.82036116 46.68253379 25.85522646 45.95296578 22.8125 45.1875 C21.09562785 44.52161033 19.38748041 43.83290229 17.6875 43.125 C6.70666232 39.36406309 -8.58125167 39.07409578 -19.1875 44.1875 C-26.51274513 47.86437401 -32.95818009 51.81258165 -38.1875 58.1875 C-38.96867187 59.11755859 -38.96867187 59.11755859 -39.765625 60.06640625 C-47.28828793 70.07762687 -50.83927912 83.8214779 -49.1875 96.1875 C-47.38231432 104.5167123 -47.38231432 104.5167123 -43.9921875 112.27734375 C-42.86215166 114.95980746 -43.29141327 116.45207734 -44.1875 119.1875 C-47.70987097 124.39448317 -52.56366315 128.49350057 -57.3359375 132.51953125 C-59.07199609 134.08344901 -60.49264459 135.66955434 -61.9375 137.5 C-65.1456749 141.33198669 -65.1456749 141.33198669 -68.1875 142.1875 C-71.07814498 141.90999808 -72.68517463 141.68488851 -74.77734375 139.61328125 C-88.07039907 118.76822928 -92.76339169 94.19957385 -87.6875 69.9375 C-83.99680999 54.3795843 -75.64714111 36.29262313 -62.72265625 26.37109375 C-60.966379 25.07995901 -60.966379 25.07995901 -58.875 22.75 C-43.2111735 7.81472357 -21.35989423 0.01363107 0 0 Z " fill="#81828D" transform="translate(149.1875,49.8125)"/>
<path d="M0 0 C1.50720208 0.66149617 3.00936106 1.33453868 4.5078125 2.015625 C10.19278257 4.31355084 15.29212255 4.65132707 21.375 4.5625 C22.88900391 4.55585327 22.88900391 4.55585327 24.43359375 4.54907227 C31.45386248 4.38092551 36.42479949 3.25882856 42.69140625 0.06640625 C46.17574869 -1.54311234 48.44687482 -1.30522966 52 0 C54.625 2.25 54.625 2.25 57 5 C57.804375 5.78375 58.60875 6.5675 59.4375 7.375 C61.92591808 9.9241112 64.21442477 12.57030115 66.51171875 15.2890625 C68.56508323 17.64962324 70.75632331 19.82042836 73 22 C74 23 74 23 74.375 25.3125 C74 28 74 28 71.84375 29.9765625 C67.20567511 33.27673117 62.12700531 35.56053779 57 38 C55.88625 38.556875 54.7725 39.11375 53.625 39.6875 C42.8747225 43.57984185 32.04698782 44.55727473 20.6875 44.5 C20.01057098 44.49757294 19.33364197 44.49514587 18.63619995 44.49264526 C1.61342266 44.37455515 -17.3705569 40.6294431 -30 28 C-30.42138672 25.21020508 -30.42138672 25.21020508 -30 22 C-28.01220703 19.31518555 -28.01220703 19.31518555 -25.2578125 16.63671875 C-24.77424286 16.15926712 -24.29067322 15.68181549 -23.79244995 15.18989563 C-22.25017312 13.67447437 -20.68804134 12.18146329 -19.125 10.6875 C-18.08071769 9.66475095 -17.03773323 8.64067494 -15.99609375 7.61523438 C-6.63442639 -1.5401347 -6.63442639 -1.5401347 0 0 Z " fill="#EBEBEB" transform="translate(128,185)"/>
<path d="M0 0 C6.45353137 3.99015558 10.42257478 9.92790694 13 17 C14.7356554 26.48203689 12.39501537 34.14329318 7 42 C1.52671533 48.46008232 -4.57547222 51.34670775 -12.88671875 52.34765625 C-21.37500218 52.771527 -27.35276308 50.59469573 -34.03515625 45.42578125 C-39.52792305 40.42281531 -42.49729765 35.05007368 -43.4140625 27.6640625 C-43.82830085 17.61333211 -41.50266917 10.57025062 -34.75 3.125 C-24.69848967 -6.01863198 -11.70939863 -6.49617072 0 0 Z " fill="#FCFCFC" transform="translate(165,116)"/>
<path d="M0 0 C1.00611328 -0.00773437 2.01222656 -0.01546875 3.04882812 -0.0234375 C8.19414805 -0.00987041 12.50301293 0.18527983 17.3125 2.25 C16.9825 2.91 16.6525 3.57 16.3125 4.25 C15.72984375 4.1778125 15.1471875 4.105625 14.546875 4.03125 C2.19505455 2.6329307 -9.44598684 3.5100895 -21.6875 5.25 C-21.3575 4.26 -21.0275 3.27 -20.6875 2.25 C-14.35781277 -0.50926197 -6.75535954 -0.05253682 0 0 Z " fill="#8F8F99" transform="translate(149.6875,49.75)"/>
<path d="M0 0 C0 0.66 0 1.32 0 2 C-0.72469482 2.2357373 -1.44938965 2.47147461 -2.19604492 2.71435547 C-5.47078294 4.2158592 -7.34397805 6.00224859 -9.86328125 8.5703125 C-11.19262695 9.91416016 -11.19262695 9.91416016 -12.54882812 11.28515625 C-13.9168457 12.69087891 -13.9168457 12.69087891 -15.3125 14.125 C-16.25255572 15.08011605 -17.19330431 16.03455067 -18.13476562 16.98828125 C-20.43008067 19.31890883 -22.71809646 21.65625196 -25 24 C-25.33 23.01 -25.66 22.02 -26 21 C-23.19151323 18.16681071 -20.379765 15.33690379 -17.56494141 12.51000977 C-16.60765619 11.54769305 -15.65127006 10.58448108 -14.69580078 9.62036133 C-13.32300212 8.23544555 -11.94670528 6.85400009 -10.5703125 5.47265625 C-9.74289551 4.64000244 -8.91547852 3.80734863 -8.06298828 2.94946289 C-5.0127755 0.06710206 -4.37993077 0 0 0 Z " fill="#E2E2E2" transform="translate(126,184)"/>
<path d="M0 0 C-3.13222517 2.08815012 -6.14764562 3.37686023 -9.625 4.8125 C-15.30403505 7.18994187 -20.71441396 9.8398348 -26 13 C-24.94739437 9.58095252 -23.73832722 8.83656822 -20.62890625 6.89453125 C-19.27953992 6.18872923 -17.92377218 5.49505698 -16.5625 4.8125 C-15.88123047 4.45736328 -15.19996094 4.10222656 -14.49804688 3.73632812 C-9.35279296 1.08055064 -5.78292928 -0.12850954 0 0 Z " fill="#9798A2" transform="translate(125,55)"/>
<path d="M0 0 C6.40140935 0.46555704 11.26769829 2.14711836 17 5 C13.02623171 6.56393356 10.18622097 5.36145292 6.25 4.0625 C4.49429688 3.49208984 4.49429688 3.49208984 2.703125 2.91015625 C1.81109375 2.60980469 0.9190625 2.30945312 0 2 C0 1.34 0 0.68 0 0 Z " fill="#9E9FA9" transform="translate(169,53)"/>
<path d="M0 0 C4.93057834 0.46224172 9.2872633 2.78171655 13 6 C13.734375 8.16796875 13.734375 8.16796875 14 10 C13.40832031 9.60167969 12.81664062 9.20335938 12.20703125 8.79296875 C8.81820217 6.52085007 5.44957571 4.26607542 1.9375 2.1875 C1.298125 1.795625 0.65875 1.40375 0 1 C0 0.67 0 0.34 0 0 Z " fill="#9596A0" transform="translate(188,60)"/>
<path d="M0 0 C0.99 0.33 1.98 0.66 3 1 C0.03 3.64 -2.94 6.28 -6 9 C-6.33 8.34 -6.66 7.68 -7 7 C-4.66666667 4.66666667 -2.33333333 2.33333333 0 0 Z " fill="#92939D" transform="translate(95,68)"/>
</svg>
